<svg xmlns="http://www.w3.org/2000/svg" xmlns:xlink="http://www.w3.org/1999/xlink" viewBox="0,0,256,256" width="50px" height="50px"><g fill="#fcc419" fill-rule="nonzero" stroke="none" stroke-width="1" stroke-linecap="butt" stroke-linejoin="miter" stroke-miterlimit="10" stroke-dasharray="" stroke-dashoffset="0" font-family="none" font-weight="none" font-size="none" text-anchor="none" style="mix-blend-mode: normal"><g transform="scale(5.12,5.12)"><path d="M2.8125,10c-0.47656,0.08984 -0.82031,0.51172 -0.8125,1v28c0,0.55078 0.44922,1 1,1h44c0.55078,0 1,-0.44922 1,-1v-28c0,-0.55078 -0.44922,-1 -1,-1h-44c-0.03125,0 -0.0625,0 -0.09375,0c-0.03125,0 -0.0625,0 -0.09375,0zM4,12h42v26h-42zM25,15.875l-0.46875,0.25l-1.8125,0.9375l-1.96875,0.28125l-0.53125,0.09375l-0.21875,0.4375l-0.9375,1.84375l-1.4375,1.40625l-0.34375,0.375l0.0625,0.5l0.34375,2l-0.34375,2l-0.0625,0.5l0.34375,0.375l1.4375,1.40625l0.4375,0.84375l-3.5,4.8125l2.21875,0.1875l1.21875,1.875l2.5625,-5.15625l0.71875,0.09375l1.8125,0.9375l0.46875,0.25l0.46875,-0.25l1.8125,-0.9375l0.71875,-0.09375l2.5625,5.15625l1.21875,-1.875l2.21875,-0.1875l-3.5,-4.8125l0.4375,-0.84375l1.4375,-1.40625l0.34375,-0.375l-0.0625,-0.5l-0.34375,-2l0.34375,-2l0.0625,-0.5l-0.34375,-0.375l-1.4375,-1.40625l-0.9375,-1.84375l-0.21875,-0.4375l-0.53125,-0.09375l-1.96875,-0.28125l-1.8125,-0.9375zM25,18.125l1.5,0.78125l0.125,0.0625l0.1875,0.03125l1.625,0.25l0.75,1.5l0.09375,0.15625l0.125,0.09375l1.1875,1.1875l-0.28125,1.65625l-0.03125,0.15625l0.03125,0.15625l0.28125,1.65625l-1.1875,1.1875l-0.125,0.09375l-0.09375,0.15625l-0.75,1.5l-1.625,0.25l-0.1875,0.03125l-0.125,0.0625l-1.5,0.78125l-1.5,-0.78125l-0.125,-0.0625l-0.1875,-0.03125l-1.625,-0.25l-0.75,-1.5l-0.09375,-0.15625l-0.125,-0.09375l-1.1875,-1.1875l0.28125,-1.65625l0.03125,-0.15625l-0.03125,-0.15625l-0.28125,-1.65625l1.1875,-1.1875l0.125,-0.09375l0.09375,-0.15625l0.75,-1.5l1.625,-0.25l0.1875,-0.03125l0.125,-0.0625z"></path></g></g></svg>