<svg xmlns="http://www.w3.org/2000/svg" xmlns:xlink="http://www.w3.org/1999/xlink" viewBox="0,0,256,256" width="100px" height="100px"><g transform=""><g fill="none" fill-rule="nonzero" stroke="none" stroke-width="1" stroke-linecap="butt" stroke-linejoin="miter" stroke-miterlimit="10" stroke-dasharray="" stroke-dashoffset="0" font-family="none" font-weight="none" font-size="none" text-anchor="none" style="mix-blend-mode: normal"><g transform="translate(38.13996,-42.21039) rotate(18) scale(2.56,2.56)"><path d="M66.42,43.266c-5.564,-7.234 -16.783,-17.164 -26.098,-10.489c-4.522,3.24 -5.357,9.375 -10.111,12.34c-0.809,0.505 -1.612,0.952 -2.408,1.373c-1.495,0.365 -2.968,0.832 -4.399,1.407c-0.496,0.145 -0.992,0.29 -1.486,0.439c-4.892,1.478 -10.709,3.323 -13.579,7.926c-5.878,9.428 2.539,19.576 9.038,25.798c6.629,6.346 14.105,13.162 23.828,8.322c4.388,-2.184 6.966,-6.106 8.647,-10.585c1.939,-5.166 2.367,-11.796 7.031,-15.392c3.944,-3.041 8.58,-4.077 11.093,-8.835c2.197,-4.157 1.196,-8.725 -1.556,-12.304zM48.475,49.948c-0.031,0.024 -0.062,0.047 -0.092,0.071c-0.086,-0.111 -0.177,-0.219 -0.271,-0.324c0.359,-0.123 0.714,-0.22 1.065,-0.281c-0.234,0.177 -0.468,0.356 -0.702,0.534z" fill="#f09215"></path><path d="M75.442,26.062c0.081,-0.695 -0.108,-1.4 -0.677,-1.969c-0.394,-0.394 -0.971,-0.635 -1.565,-0.699c-0.922,-0.864 -2.432,-1.146 -3.495,-0.047c-3.66,3.786 -7.328,7.564 -10.996,11.343c-0.357,0.326 -0.713,0.653 -1.067,0.979c-1.471,1.356 -2.924,2.74 -4.299,4.195c-0.186,0.197 -0.39,0.403 -0.596,0.617c-0.735,0.549 -1.456,1.114 -2.156,1.704c-0.185,0.093 -0.367,0.201 -0.542,0.341c-0.683,0.547 -1.279,1.263 -1.895,1.879c-1.044,1.043 -0.864,2.342 -0.15,3.232c0.258,0.767 0.832,1.413 1.548,1.68c0.261,1.798 2.536,2.964 4.21,1.459c4.753,-4.274 9.361,-8.703 13.851,-13.251c2.693,-2.568 5.295,-5.228 7.719,-8.063c0.84,-0.982 0.983,-2.397 0.11,-3.4z" fill="#815ea2"></path><path d="M89.527,16.506c-0.281,-1.005 -1.096,-1.605 -1.865,-2.222c-0.71,-0.57 -1.42,-1.14 -2.13,-1.71c-0.71,-0.57 -1.42,-1.14 -2.13,-1.71c-0.837,-0.672 -1.69,-1.585 -2.745,-1.88c-2.222,-0.62 -3.904,1.891 -5.242,3.256c-1.326,1.353 -2.652,2.706 -3.979,4.059c-0.643,0.656 -1.286,1.312 -1.929,1.968c-0.709,0.723 -1.522,1.426 -1.922,2.377c-1.082,2.571 1.338,4.205 3.096,5.569c1.675,1.299 3.415,2.491 5.249,3.555c0.761,0.441 1.497,0.431 2.115,0.164c0.369,-0.104 0.738,-0.29 1.088,-0.596c2.661,-2.333 5.195,-4.807 7.577,-7.425c1.335,-1.47 3.437,-3.192 2.817,-5.405zM74.002,22.423c-0.599,0.587 -1.517,0.554 -2.121,0c-0.593,-0.544 -0.562,-1.571 0,-2.121c2.265,-2.218 4.529,-4.436 6.794,-6.654c0.599,-0.587 1.517,-0.554 2.121,0c0.593,0.544 0.562,1.571 0,2.121c-2.265,2.218 -4.53,4.436 -6.794,6.654zM84.234,19.996c-1.988,1.755 -3.837,3.662 -5.53,5.704c-0.535,0.645 -1.569,0.507 -2.121,0c-0.276,-0.253 -0.439,-0.693 -0.439,-1.061c0,-0.422 0.179,-0.747 0.439,-1.061c1.692,-2.042 3.541,-3.949 5.53,-5.704c0.63,-0.556 1.492,-0.578 2.121,0c0.571,0.526 0.59,1.602 0,2.122z" fill="#f09215"></path><path d="M52.863,49.835c-0.342,-2.223 -2.016,-3.959 -4.058,-4.747c-2.037,-0.786 -4.31,-0.213 -5.925,1.183c-0.211,0.182 -0.4,0.384 -0.574,0.596c-0.035,0.032 -0.074,0.058 -0.109,0.091c-1.347,1.259 -2.186,3.247 -2.034,5.096c0.109,1.332 0.556,2.631 1.543,3.578c0.79,0.757 1.795,1.238 2.84,1.529c1.204,0.336 2.439,0.458 3.671,0.217c1.023,-0.2 1.971,-0.788 2.731,-1.483c0.799,-0.732 1.33,-1.68 1.697,-2.686c0.397,-1.089 0.391,-2.249 0.218,-3.374z" fill="#733d7e"></path><path d="M35.918,63.157c-1.333,-1.545 -2.715,-3.046 -4.256,-4.39c-0.788,-0.687 -2.064,-0.833 -2.828,0c-0.498,0.542 -0.661,1.234 -0.506,1.879c-0.017,0.322 0.044,0.644 0.183,0.951c0.042,0.211 0.117,0.417 0.255,0.603c1.168,1.568 2.431,3.053 3.847,4.402c0.653,0.622 1.333,1.216 2.037,1.779c1.122,0.897 2.28,1.81 3.816,1.385c1.398,-0.387 2.013,-2.315 0.883,-3.343c-1.168,-1.063 -2.306,-2.158 -3.431,-3.266z" fill="#733d7e"></path><path d="M32.722,46.64c-0.97,0.986 -1.972,2.036 -3.084,2.801c-0.591,0.407 -1.214,0.764 -1.854,1.089c-0.374,0.19 -0.754,0.369 -1.136,0.54c-0.093,0.038 -0.187,0.075 -0.281,0.112c-2.359,0.904 -4.812,1.652 -7.085,2.764c-0.74,0.362 -1.443,0.834 -2.058,1.395c-0.434,0.249 -0.858,0.512 -1.262,0.798c-1.522,1.076 -2.8,2.494 -3.229,4.358c-0.386,1.677 -0.131,3.381 0.287,5.027c0.078,0.379 0.174,0.758 0.308,1.133c0.449,1.257 1.69,1.585 2.664,1.254c0.305,0.522 0.645,1.034 1.062,1.518c0.571,0.665 1.7,0.736 2.424,0.313c0.808,-0.472 1.083,-1.379 0.919,-2.259c-0.882,-4.743 1.68,-9.403 5.904,-11.422c4.029,-1.521 8.173,-3.081 9.766,-7.475c0.698,-1.929 -2.008,-3.304 -3.345,-1.946z" fill="#fea919"></path><path d="M38.697,36.106c0,0 -0.443,0.719 -1.337,2.049c-0.452,0.661 -1.027,1.47 -1.805,2.334c-0.779,0.863 -1.77,1.767 -3.09,2.481c-0.652,0.367 -1.374,0.698 -2.147,1.023c-0.39,0.158 -0.79,0.319 -1.199,0.485c-0.206,0.081 -0.415,0.164 -0.626,0.247c-0.151,0.06 -0.4,0.117 -0.616,0.182c-1.787,0.496 -3.756,1.006 -5.814,1.748c-2.059,0.734 -4.246,1.619 -6.424,2.9c-2.146,1.296 -4.363,3.003 -5.899,5.506c-1.563,2.475 -2.188,5.683 -1.801,8.803c0.045,0.392 0.089,0.786 0.134,1.182c0.092,0.383 0.184,0.768 0.276,1.154c0.182,0.775 0.364,1.559 0.648,2.328c0.541,1.543 1.295,3.03 2.179,4.449c1.77,2.849 4.084,5.387 6.517,7.827c2.442,2.363 4.746,5.005 7.688,7.406c1.469,1.184 3.115,2.279 4.973,3.084c0.929,0.378 1.926,0.74 2.906,0.913l1.482,0.315l1.534,0.146c2.048,0.124 4.212,-0.03 6.238,-0.764c2.03,-0.692 3.918,-1.806 5.552,-3.195c3.225,-2.841 5.493,-6.554 7.047,-10.482c0.413,-0.977 0.73,-1.993 1.069,-2.996c0.302,-0.967 0.6,-1.938 0.922,-2.876c0.638,-1.887 1.372,-3.661 2.412,-5.16c0.768,-1.086 1.703,-2.023 2.787,-2.833c0.539,-0.407 1.113,-0.783 1.715,-1.129l0.966,-0.563c0.344,-0.192 0.677,-0.407 1.012,-0.615c2.651,-1.687 5.152,-3.849 6.775,-6.757c1.639,-2.889 2.068,-6.478 1.109,-9.592c-0.461,-1.555 -1.193,-2.965 -2.041,-4.224c-0.422,-0.634 -0.883,-1.222 -1.351,-1.794l-0.358,-0.42c0.009,0.013 -0.015,-0.013 -0.022,-0.018l-0.07,-0.063l0.051,-0.064c0.046,-0.05 -0.06,0.052 0.26,-0.272c0.452,-0.463 0.903,-0.924 1.352,-1.383c0.892,-0.924 1.776,-1.839 2.653,-2.747c0.868,-0.919 1.728,-1.831 2.581,-2.734c0.422,-0.46 0.842,-0.919 1.26,-1.375l0.311,-0.349l0.061,-0.076c0.034,-0.034 0.063,-0.104 0.104,-0.112c0.029,0.016 0.058,0.033 0.092,0.045c0.024,0.006 0.041,0.023 0.411,0.103c0.574,0.114 1.149,0.103 1.701,-0.006c0.586,-0.13 0.996,-0.291 1.506,-0.575c0.239,-0.14 0.462,-0.301 0.665,-0.475l0.456,-0.41c1.153,-1.048 2.266,-2.108 3.337,-3.181c1.071,-1.072 2.101,-2.154 3.088,-3.244c0.484,-0.535 0.964,-1.067 1.44,-1.594c0.489,-0.53 1.003,-1.088 1.465,-1.744c0.456,-0.652 0.893,-1.413 1.056,-2.339c0.176,-0.922 0.01,-1.914 -0.415,-2.701c-0.425,-0.816 -1.064,-1.389 -1.612,-1.829c-0.523,-0.416 -1.042,-0.828 -1.556,-1.236c-1.028,-0.82 -2.045,-1.62 -3.066,-2.386c-0.511,-0.382 -1.023,-0.756 -1.548,-1.118c-0.269,-0.18 -0.526,-0.358 -0.816,-0.53c-0.268,-0.168 -0.596,-0.355 -1.059,-0.5c-0.755,-0.177 -1.508,-0.116 -2.18,0.123c-0.667,0.237 -1.215,0.612 -1.684,1.003c-0.934,0.792 -1.607,1.676 -2.292,2.417c-1.435,1.53 -2.802,2.987 -4.098,4.369c-0.646,0.69 -1.275,1.361 -1.886,2.013c-0.6,0.635 -1.268,1.284 -1.719,2.113c-0.44,0.822 -0.638,1.776 -0.446,2.666c0.088,0.427 0.287,0.866 0.473,1.167c0.166,0.269 0.342,0.478 0.546,0.696c0.073,0.043 0.001,0.083 -0.031,0.124l-0.111,0.122l-0.222,0.243c-0.158,0.173 -0.314,0.343 -0.467,0.511c-0.369,0.399 -0.726,0.787 -1.072,1.162c-0.691,0.749 -1.336,1.45 -1.935,2.099c-1.193,1.298 -2.2,2.394 -3.012,3.278c-0.808,0.883 -1.423,1.555 -1.836,2.006c-0.407,0.455 -0.629,0.672 -0.629,0.672c0,0 0.236,-0.202 0.668,-0.632c0.438,-0.426 1.089,-1.061 1.946,-1.895c0.859,-0.84 1.923,-1.88 3.182,-3.112c0.631,-0.619 1.311,-1.286 2.04,-2c0.364,-0.358 0.741,-0.728 1.129,-1.109c0.225,-0.223 0.454,-0.45 0.686,-0.679l0.368,-0.365l0.187,-0.186c0.058,-0.062 0.156,-0.125 0.109,-0.189c-0.279,-0.332 -0.592,-0.715 -0.815,-1.095c-0.196,-0.35 -0.292,-0.634 -0.354,-0.977c-0.11,-0.659 0.073,-1.382 0.451,-2.017c0.384,-0.638 0.995,-1.195 1.65,-1.821c0.641,-0.625 1.301,-1.268 1.979,-1.929c1.358,-1.328 2.79,-2.728 4.294,-4.199c0.77,-0.775 1.455,-1.583 2.236,-2.188c0.773,-0.613 1.625,-0.919 2.392,-0.69c0.112,0.037 0.317,0.153 0.56,0.318c0.23,0.148 0.471,0.328 0.708,0.501c0.478,0.357 0.96,0.737 1.443,1.128c0.967,0.783 1.941,1.609 2.932,2.458c0.498,0.425 1,0.853 1.507,1.285c0.475,0.406 0.832,0.789 1.02,1.195c0.407,0.848 0.187,1.707 -0.57,2.698c-0.362,0.483 -0.823,0.961 -1.318,1.465c-0.498,0.518 -0.999,1.04 -1.504,1.566c-0.992,1.032 -2.024,2.056 -3.095,3.07c-1.07,1.015 -2.181,2.017 -3.328,3.008l-0.411,0.352c-0.092,0.074 -0.186,0.137 -0.282,0.189c-0.164,0.091 -0.491,0.208 -0.667,0.233c-0.212,0.035 -0.433,0.032 -0.627,-0.015c-0.017,0.017 -0.362,-0.125 -0.699,-0.356l-0.971,-0.617c-0.651,0.714 -1.304,1.43 -1.961,2.151c-0.42,0.436 -0.84,0.875 -1.262,1.315c-0.862,0.875 -1.732,1.758 -2.609,2.649c-2.131,2.11 -4.3,4.257 -6.504,6.439l1.344,1.464c0.226,0.253 0.444,0.481 0.677,0.757l0.31,0.375c0.401,0.506 0.791,1.021 1.135,1.556c0.695,1.066 1.249,2.195 1.58,3.365c0.673,2.331 0.341,4.898 -0.905,7.067c-1.24,2.197 -3.32,4.041 -5.682,5.52c-0.298,0.183 -0.592,0.372 -0.902,0.543l-0.973,0.562c-0.696,0.398 -1.383,0.843 -2.045,1.34c-1.327,0.984 -2.558,2.207 -3.54,3.603c-2.672,3.878 -3.321,8.28 -4.744,11.745c-1.387,3.593 -3.406,6.874 -6.054,9.263c-2.671,2.345 -6.038,3.583 -9.461,3.331l-1.277,-0.095l-1.267,-0.25c-0.865,-0.132 -1.625,-0.405 -2.409,-0.7c-1.543,-0.634 -2.989,-1.538 -4.345,-2.583c-2.702,-2.096 -5.118,-4.701 -7.639,-7.021c-2.445,-2.323 -4.69,-4.662 -6.387,-7.216c-0.849,-1.273 -1.57,-2.59 -2.098,-3.951c-0.276,-0.674 -0.461,-1.378 -0.65,-2.075l-0.29,-1.038c-0.051,-0.349 -0.101,-0.696 -0.152,-1.042c-0.433,-2.762 -0.003,-5.47 1.258,-7.675c1.239,-2.227 3.19,-3.893 5.169,-5.203c2.007,-1.3 4.09,-2.258 6.071,-3.068c1.982,-0.821 3.894,-1.415 5.653,-1.998c0.224,-0.081 0.424,-0.129 0.691,-0.245c0.206,-0.094 0.411,-0.186 0.613,-0.278c0.404,-0.188 0.799,-0.371 1.185,-0.551c0.769,-0.37 1.494,-0.749 2.15,-1.165c1.33,-0.812 2.318,-1.817 3.057,-2.734c0.744,-0.924 1.275,-1.771 1.689,-2.459c0.814,-1.383 1.21,-2.126 1.21,-2.126z" fill="#000000"></path></g></g></g></svg>