<svg xmlns="http://www.w3.org/2000/svg" xmlns:xlink="http://www.w3.org/1999/xlink" viewBox="0,0,256,256" width="50px" height="50px"><g fill="#fcc419" fill-rule="nonzero" stroke="none" stroke-width="1" stroke-linecap="butt" stroke-linejoin="miter" stroke-miterlimit="10" stroke-dasharray="" stroke-dashoffset="0" font-family="none" font-weight="none" font-size="none" text-anchor="none" style="mix-blend-mode: normal"><g transform="scale(5.12,5.12)"><path d="M6,8c-2.75,0 -5,2.25 -5,5v24c0,2.75 2.25,5 5,5h38c1.52734,0 2.78125,-0.92969 3.62891,-2.07422c0.85156,-1.14453 1.37109,-2.55078 1.37109,-3.92578v-23c0,-2.75 -2.25,-5 -5,-5zM6,10h38c1.66797,0 3,1.33203 3,3v23c0,0.83594 -0.37891,1.92969 -0.97266,2.73438c-0.59766,0.80078 -1.34375,1.26563 -2.02734,1.26563h-38c-1.66797,0 -3,-1.33203 -3,-3v-24c0,-1.66797 1.33203,-3 3,-3zM18.50391,14c-0.41406,-0.00391 -0.78906,0.25391 -0.9375,0.64453l-2.52344,6.625l-7.09375,0.36328c-0.41406,0.01953 -0.77344,0.29688 -0.89844,0.69141c-0.12891,0.39453 0,0.82422 0.32422,1.08594l5.51953,4.45313l-1.92187,6.86719c-0.10937,0.39844 0.03516,0.82813 0.37109,1.07422c0.33203,0.24609 0.78516,0.26172 1.13672,0.03906l6.01953,-3.86719l6.02344,3.86719c0.34766,0.22266 0.80078,0.20703 1.13281,-0.03906c0.33203,-0.25 0.48047,-0.67578 0.37109,-1.07422l-1.92187,-6.86719l5.51953,-4.45312c0.32422,-0.26172 0.45313,-0.69141 0.32422,-1.08594c-0.125,-0.39453 -0.48437,-0.67187 -0.89844,-0.69141l-7.09375,-0.36328l-2.52344,-6.625c-0.14844,-0.38672 -0.51562,-0.64062 -0.92969,-0.64453zM18.5,17.80859l1.82422,4.78516c0.14063,0.37109 0.48438,0.62109 0.87891,0.64063l5.12891,0.26563l-3.99609,3.21875c-0.3125,0.25391 -0.44531,0.66406 -0.33594,1.05078l1.39063,4.96875l-4.35156,-2.78906c-0.32812,-0.21484 -0.75,-0.21484 -1.08203,0l-4.34766,2.78906l1.39063,-4.96875c0.10938,-0.38672 -0.02344,-0.79687 -0.33594,-1.05078l-3.99609,-3.21875l5.12891,-0.26562c0.39453,-0.01953 0.73828,-0.26953 0.87891,-0.64062zM32,33c-0.55078,0 -1,0.44922 -1,1c0,0.55078 0.44922,1 1,1c0.55078,0 1,-0.44922 1,-1c0,-0.55078 -0.44922,-1 -1,-1zM35,33c-0.55078,0 -1,0.44922 -1,1c0,0.55078 0.44922,1 1,1c0.55078,0 1,-0.44922 1,-1c0,-0.55078 -0.44922,-1 -1,-1zM38,33c-0.55078,0 -1,0.44922 -1,1c0,0.55078 0.44922,1 1,1c0.55078,0 1,-0.44922 1,-1c0,-0.55078 -0.44922,-1 -1,-1zM41,33c-0.55078,0 -1,0.44922 -1,1c0,0.55078 0.44922,1 1,1c0.55078,0 1,-0.44922 1,-1c0,-0.55078 -0.44922,-1 -1,-1z"></path></g></g></svg>