<svg xmlns="http://www.w3.org/2000/svg" xmlns:xlink="http://www.w3.org/1999/xlink" viewBox="0,0,256,256" width="50px" height="50px"><g fill="#fcc419" fill-rule="nonzero" stroke="none" stroke-width="1" stroke-linecap="butt" stroke-linejoin="miter" stroke-miterlimit="10" stroke-dasharray="" stroke-dashoffset="0" font-family="none" font-weight="none" font-size="none" text-anchor="none" style="mix-blend-mode: normal"><g transform="scale(5.12,5.12)"><path d="M2.84375,13c-1.55859,0 -2.84375,1.28516 -2.84375,2.84375v26.15625c0,1.66016 1.33984,3 3,3h4.09375c0.47656,2.83594 2.94141,5 5.90625,5c2.96484,0 5.42969,-2.16406 5.90625,-5h9.25c0.73828,0 1.39844,-0.3125 1.90625,-0.78125c0.51953,0.45703 1.18359,0.77344 1.9375,0.78125h1.09375c0.47656,2.83594 2.94141,5 5.90625,5c3.30078,0 6,-2.69922 6,-6c0,-3.30078 -2.69922,-6 -6,-6c-2.96484,0 -5.42969,2.16406 -5.90625,5h-1.09375c-0.1875,0 -0.47266,-0.12891 -0.6875,-0.34375c-0.21484,-0.21484 -0.3125,-0.47266 -0.3125,-0.65625v-19c0,-0.375 0.625,-1 1,-1h8c0.78516,0 1.89063,0.83984 2.65625,1.75c0.00781,0.01172 0.02344,0.01953 0.03125,0.03125l0.15625,0.21875h-4.84375c-1.59375,0 -3,1.28906 -3,3v4c0,0.83203 0.375,1.5625 0.90625,2.09375c0.53125,0.53125 1.26172,0.90625 2.09375,0.90625h10v8c0,0.375 -0.625,1 -1,1h-2v2h2c1.66016,0 3,-1.33984 3,-3v-9.625c0,-2.28906 -1.59375,-4.3125 -1.59375,-4.3125h-0.03125l-4.125,-5.5v-0.03125l-0.03125,-0.03125c-0.92187,-1.11328 -2.30469,-2.5 -4.21875,-2.5h-8c-0.35547,0 -0.68359,0.07422 -1,0.1875v-4.28125c0,-1.53516 -1.21094,-2.90625 -2.8125,-2.90625zM2.84375,15h25.34375c0.42969,0 0.8125,0.41406 0.8125,0.90625v26.25c0,0.46875 -0.37109,0.84375 -0.84375,0.84375h-9.25c-0.47656,-2.83594 -2.94141,-5 -5.90625,-5c-2.96484,0 -5.42969,2.16406 -5.90625,5h-4.09375c-0.375,0 -1,-0.62891 -1,-1v-26.15625c0,-0.46875 0.36719,-0.84375 0.84375,-0.84375zM38,26h6.34375l2.4375,3.25c0,0 0.90625,1.55078 1.09375,2.75h-9.875c-0.16797,0 -0.4375,-0.125 -0.65625,-0.34375c-0.21875,-0.21875 -0.34375,-0.48828 -0.34375,-0.65625v-4c0,-0.50391 0.59375,-1 1,-1zM13,40c2.22266,0 4,1.77734 4,4c0,2.22266 -1.77734,4 -4,4c-2.22266,0 -4,-1.77734 -4,-4c0,-2.22266 1.77734,-4 4,-4zM39,40c2.22266,0 4,1.77734 4,4c0,2.22266 -1.77734,4 -4,4c-2.22266,0 -4,-1.77734 -4,-4c0,-2.22266 1.77734,-4 4,-4z"></path></g></g></svg>